<svg id="Capa_1" enable-background="new 0 0 512 512" height="512" viewBox="0 0 512 512" width="512" xmlns="http://www.w3.org/2000/svg"><g><g><path d="m467.002 511.999c-101.089 0-165.002-80.319-165.002-164.672v-195.326c0-33.083 26.916-60 60-60 88.696 0 150 104.043 150 195v180c0 24.738-19.919 44.924-44.403 44.997-.199.001-.397.001-.595.001z" fill="#ec5569"/></g><g><path d="m44.998 511.999c-.199 0-.396 0-.594-.001-24.484-.073-44.404-20.259-44.404-44.997v-180c0-90.154 60.856-195.001 150-195.001 33.084 0 60 26.917 60 60v195.326c0 83.733-63.224 164.673-165.002 164.673z" fill="#ff8e8e"/></g><path d="m452 347.001c0 8.28-6.72 15-15 15h-23.7l8.41 42.06c1.62 8.12-3.64 16.02-11.77 17.65-8.07 1.62-16.01-3.59-17.65-11.77-1.39-6.96-27.58-137.9-28.55-142.77l-107.74-53.43-107.74 53.43c-.97 4.87-27.15 135.75-28.55 142.77-1.63 8.13-9.54 13.39-17.65 11.77-8.12-1.63-13.39-9.53-11.77-17.65l8.41-42.06h-23.7c-8.28 0-15-6.72-15-15s6.72-15 15-15h29.7l12-60h-41.7c-8.28 0-15-6.72-15-15s6.72-15 15-15h56.49l109.51-54.3v-172.7c0-8.28 6.72-15 15-15s15 6.72 15 15v172.7l109.51 54.3h56.49c8.28 0 15 6.72 15 15s-6.72 15-15 15h-41.7l12 60h29.7c8.28 0 15 6.72 15 15z" fill="#ec5569"/><path d="m452 347.001c0 8.28-6.72 15-15 15h-23.7l8.41 42.06c1.62 8.12-3.64 16.02-11.77 17.65-8.07 1.62-16.01-3.59-17.65-11.77-1.39-6.96-27.58-137.9-28.55-142.77l-107.74-53.43v-213.74c8.28 0 15 6.72 15 15v172.7l109.51 54.3h56.49c8.28 0 15 6.72 15 15s-6.72 15-15 15h-41.7l12 60h29.7c8.28 0 15 6.72 15 15z" fill="#cc2e43"/></g></svg>