<svg id="Capa_1" enable-background="new 0 0 512 512" height="512" viewBox="0 0 512 512" width="512" xmlns="http://www.w3.org/2000/svg" xmlns:xlink="http://www.w3.org/1999/xlink"><linearGradient id="SVGID_1_" gradientUnits="userSpaceOnUse" x1="256" x2="256" y1="436.5" y2="75.5"><stop offset="0" stop-color="#5558ff"/><stop offset="1" stop-color="#00c0ff"/></linearGradient><g><g><path d="m211 166.5c-33.091 0-60 33.647-60 75s26.909 75 60 75 60-33.647 60-75-26.909-75-60-75zm0 120c-16.26 0-30-20.61-30-45s13.74-45 30-45 30 20.61 30 45-13.74 45-30 45zm235.078-76.318c-13.579-43.785-53.613-73.682-100.078-73.682-6.768 0-13.711.791-20.991 2.417-31.231-39.272-78.706-63.417-129.009-63.417-89.019 0-161.807 71.869-164.707 162.089-19.585 22.119-31.293 49.907-31.293 78.911 0 66.167 54.833 120 121 120h270c66.167 0 121-53.833 121-120 0-44.604-26.312-85.781-65.922-106.318zm-55.078 196.318h-270c-49.629 0-90-40.371-90-90 0-23.13 9.214-45.308 25.942-62.446 2.725-2.798 4.058-8.643 4.058-12.554 0-74.443 60.557-135 135-135 44.048 0 85.459 21.724 110.757 58.125 3.75 5.376 10.562 7.72 16.831 5.742 8.364-2.637 15.483-3.867 22.412-3.867 35.142 0 65.156 23.994 72.979 58.345 1.392 6.123 6.387 10.62 12.407 11.514 30.234 15.263 49.614 46.391 49.614 80.141 0 49.629-40.371 90-90 90zm-30-105c0-24.814-20.186-45-45-45s-45 20.186-45 45c0 8.291 6.709 15 15 15s15-6.709 15-15c0-8.276 6.724-15 15-15s15 6.724 15 15c0 13.462-30.029 35.713-51.724 46.582-6.211 3.12-9.463 10.107-7.866 16.875s7.632 11.543 14.59 11.543h60c8.291 0 15-6.709 15-15s-6.709-15-15-15h-10.693c13.916-12.437 25.693-27.993 25.693-45z" fill="url(#SVGID_1_)"/></g></g></svg>